<!DOCTYPE svg PUBLIC "-//W3C//DTD SVG 1.1//EN" "http://www.w3.org/Graphics/SVG/1.1/DTD/svg11.dtd">
<!-- Uploaded to: SVG Repo, www.svgrepo.com, Transformed by: SVG Repo Mixer Tools -->
<svg width="800px" height="800px" viewBox="0 0 24 24" fill="none" xmlns="http://www.w3.org/2000/svg">
<path d="M3 9H9V3H3V9ZM5 5H7V7H5V5Z" fill="#ffffff"/>
<path d="M15 9H21V3H15V9ZM17 5H19V7H17V5Z" fill="#ffffff"/>
<path d="M3 21H9V15H3V21ZM5 17H7V19H5V17Z" fill="#ffffff"/>
<path d="M15 15H17V17H15V15Z" fill="#ffffff"/>
<path d="M19 19H21V21H19V19Z" fill="#ffffff"/>
<path d="M15 19H17V21H15V19Z" fill="#ffffff"/>
<path d="M19 15H21V17H19V15Z" fill="#ffffff"/>
<path d="M17 17H19V19H17V17Z" fill="#ffffff"/>
</svg>